# xmcd
#
# Track frame offsets:
#	150
#	15568
#	28513
#	51173
#	67143
#	86488
#	107314
#	130922
#	169143
#	196339
#	214831
#	234032
#	252199
#	275511
#	287201
#	309673
#
# Disc length: 4383 seconds
#
# Revision: 1
# Processed by: cddbd v1.5.2PL0 Copyright (c) Steve Scherf et al.
# Submitted via: audiograbber 1.83.01
#
DISCID=dd111d10
DTITLE=Best Of Rock - Modern Rock
DYEAR=1900
DGENRE=Rock
TTITLE0=Journey - Any Way You Want It
TTITLE1=Pat Benatar - Hit Me With Your Best Shot
TTITLE2=Huey Lewis And The News - The Heart Of Rock and Roll
TTITLE3=Eddie Money - Baby Hold On
TTITLE4=The Hooters - Satellite
TTITLE5=Styx - Show Me The Way
TTITLE6=Marillion - Incommunicado
TTITLE7=Meat Loaf - Paradise By The Dashboard Light
TTITLE8=Boston - Don't Look Back
TTITLE9=Heart - You Ain't So Tough
TTITLE10=Cheap Trick - Surrender
TTITLE11=REO Speedwagon - Take It On The Run
TTITLE12=Electric Light Orchestra - Big Wheels
TTITLE13=The Babys - If You've Got The Time
TTITLE14=Toto - Africa
TTITLE15=Deep Purple - Perfect Strangers
EXTD=
EXTT0=
EXTT1=
EXTT2=
EXTT3=
EXTT4=
EXTT5=
EXTT6=
EXTT7=
EXTT8=
EXTT9=
EXTT10=
EXTT11=
EXTT12=
EXTT13=
EXTT14=
EXTT15=
PLAYORDER=
